<?xml version="1.0" standalone="no"?>
<!DOCTYPE svg PUBLIC "-//W3C//DTD SVG 20010904//EN"
 "http://www.w3.org/TR/2001/REC-SVG-20010904/DTD/svg10.dtd">
<svg version="1.0" xmlns="http://www.w3.org/2000/svg"
 width="598.000000pt" height="263.000000pt" viewBox="0 0 598.000000 263.000000">

<g transform="translate(0.000000,263.000000) scale(0.100000,-0.100000)"
fill="#FF0101" stroke="none">
<path d="M2782 2060 c-250 -45 -431 -223 -503 -495 -30 -112 -37 -345 -15
-473 62 -356 298 -572 626 -572 305 0 532 187 612 507 20 76 23 113 22 273 0
157 -4 197 -22 265 -67 248 -228 423 -442 480 -71 19 -211 27 -278 15z m224
-308 c122 -62 177 -208 177 -462 0 -322 -97 -479 -294 -480 -140 0 -234 89
-274 262 -22 95 -28 232 -16 338 28 251 134 377 306 367 35 -3 78 -13 101 -25z"/>
<path d="M4832 2060 c-250 -45 -431 -223 -503 -495 -30 -112 -37 -345 -15
-473 62 -356 298 -572 626 -572 305 0 532 187 612 507 20 76 23 113 22 273 0
157 -4 197 -22 265 -67 248 -228 423 -442 480 -71 19 -211 27 -278 15z m224
-308 c122 -62 177 -208 177 -462 0 -322 -97 -479 -294 -480 -140 0 -234 89
-274 262 -22 95 -28 232 -16 338 28 251 134 377 306 367 35 -3 78 -13 101 -25z"/>
<path d="M500 2021 c0 -11 -16 -191 -35 -401 -19 -210 -35 -390 -35 -400 0
-17 16 -18 273 -22 253 -4 276 -6 329 -27 60 -23 113 -73 124 -117 12 -47 -2
-121 -29 -158 -93 -121 -370 -123 -598 -5 -44 23 -81 40 -83 38 -15 -16 -126
-252 -122 -258 9 -14 148 -79 216 -100 208 -65 490 -68 650 -5 76 29 179 103
220 158 108 143 128 328 51 492 -38 81 -104 145 -195 188 -92 45 -190 64 -364
72 -137 7 -141 8 -137 28 2 12 7 57 10 101 3 44 8 99 12 123 l5 42 314 0 314
0 0 135 0 135 -460 0 c-448 0 -460 -1 -460 -19z"/>
</g>
</svg>
